<svg xmlns="http://www.w3.org/2000/svg" width="1440" height="900"><path d="M799,617L675,669L675,872Z" fill="#545454" stroke="#545454" stroke-width="1.51"/><path d="M675,872L849,926L799,617Z" fill="#515151" stroke="#515151" stroke-width="1.51"/><path d="M849,926L1097,845L799,617Z" fill="#565656" stroke="#565656" stroke-width="1.51"/><path d="M849,926L872,1244L1097,845Z" fill="#515151" stroke="#515151" stroke-width="1.51"/><path d="M675,872L872,1244L849,926Z" fill="#4c4c4c" stroke="#4c4c4c" stroke-width="1.51"/><path d="M799,617L856,242L675,669Z" fill="#4f4f4f" stroke="#4f4f4f" stroke-width="1.51"/><path d="M1301,535L856,242L799,617Z" fill="#545454" stroke="#545454" stroke-width="1.51"/><path d="M1097,845L1301,535L799,617Z" fill="#626262" stroke="#626262" stroke-width="1.51"/><path d="M1625,604L1301,535L1097,845Z" fill="#595959" stroke="#595959" stroke-width="1.51"/><path d="M675,872L398,1346L872,1244Z" fill="#4c4c4c" stroke="#4c4c4c" stroke-width="1.51"/><path d="M675,669L226,933L675,872Z" fill="#545454" stroke="#545454" stroke-width="1.51"/><path d="M132,728L226,933L675,669Z" fill="#5d5d5d" stroke="#5d5d5d" stroke-width="1.51"/><path d="M287,332L132,728L675,669Z" fill="#5d5d5d" stroke="#5d5d5d" stroke-width="1.51"/><path d="M419,197L287,332L675,669Z" fill="#565656" stroke="#565656" stroke-width="1.51"/><path d="M856,242L419,197L675,669Z" fill="#515151" stroke="#515151" stroke-width="1.51"/><path d="M226,933L398,1346L675,872Z" fill="#545454" stroke="#545454" stroke-width="1.51"/><path d="M167,1419L398,1346L226,933Z" fill="#535353" stroke="#535353" stroke-width="1.51"/><path d="M856,242L436,81L419,197Z" fill="#585858" stroke="#585858" stroke-width="1.51"/><path d="M1301,535L1119,134L856,242Z" fill="#5e5e5e" stroke="#5e5e5e" stroke-width="1.51"/><path d="M872,1244L1196,1363L1097,845Z" fill="#555555" stroke="#555555" stroke-width="1.51"/><path d="M1116,1546L1196,1363L872,1244Z" fill="#565656" stroke="#565656" stroke-width="1.51"/><path d="M1119,134L940,40L856,242Z" fill="#5a5a5a" stroke="#5a5a5a" stroke-width="1.51"/><path d="M419,197L196,-28L287,332Z" fill="#5d5d5d" stroke="#5d5d5d" stroke-width="1.51"/><path d="M940,40L436,81L856,242Z" fill="#515151" stroke="#515151" stroke-width="1.51"/><path d="M132,728L-104,1023L226,933Z" fill="#4d4d4d" stroke="#4d4d4d" stroke-width="1.51"/><path d="M287,332L-16,675L132,728Z" fill="#555555" stroke="#555555" stroke-width="1.51"/><path d="M-218,154L-16,675L287,332Z" fill="#4e4e4e" stroke="#4e4e4e" stroke-width="1.51"/><path d="M912,1681L1116,1546L872,1244Z" fill="#525252" stroke="#525252" stroke-width="1.51"/><path d="M1301,535L1679,344L1119,134Z" fill="#525252" stroke="#525252" stroke-width="1.51"/><path d="M1728,1111L1625,604L1097,845Z" fill="#4c4c4c" stroke="#4c4c4c" stroke-width="1.51"/><path d="M1728,1111L1097,845L1196,1363Z" fill="#4d4d4d" stroke="#4d4d4d" stroke-width="1.51"/><path d="M667,1791L912,1681L872,1244Z" fill="#4d4d4d" stroke="#4d4d4d" stroke-width="1.51"/><path d="M-104,1023L167,1419L226,933Z" fill="#4d4d4d" stroke="#4d4d4d" stroke-width="1.51"/><path d="M667,1791L872,1244L398,1346Z" fill="#4c4c4c" stroke="#4c4c4c" stroke-width="1.51"/><path d="M-16,675L-104,1023L132,728Z" fill="#4f4f4f" stroke="#4f4f4f" stroke-width="1.51"/><path d="M167,1419L191,1533L398,1346Z" fill="#525252" stroke="#525252" stroke-width="1.51"/><path d="M-110,1660L191,1533L167,1419Z" fill="#4d4d4d" stroke="#4d4d4d" stroke-width="1.51"/><path d="M940,40L533,-389L436,81Z" fill="#4d4d4d" stroke="#4d4d4d" stroke-width="1.51"/><path d="M1119,134L1107,-151L940,40Z" fill="#565656" stroke="#565656" stroke-width="1.51"/><path d="M1724,-81L1107,-151L1119,134Z" fill="#4e4e4e" stroke="#4e4e4e" stroke-width="1.51"/><path d="M1625,604L1679,344L1301,535Z" fill="#4c4c4c" stroke="#4c4c4c" stroke-width="1.51"/><path d="M436,81L196,-28L419,197Z" fill="#5a5a5a" stroke="#5a5a5a" stroke-width="1.51"/><path d="M533,-389L196,-28L436,81Z" fill="#555555" stroke="#555555" stroke-width="1.51"/><path d="M1575,1462L1728,1111L1196,1363Z" fill="#4a4a4a" stroke="#4a4a4a" stroke-width="1.51"/><path d="M1625,604L1864,562L1679,344Z" fill="#4d4d4d" stroke="#4d4d4d" stroke-width="1.51"/><path d="M191,1533L667,1791L398,1346Z" fill="#545454" stroke="#545454" stroke-width="1.51"/><path d="M1463,1585L1116,1546L912,1681Z" fill="#535353" stroke="#535353" stroke-width="1.51"/><path d="M1463,1585L1196,1363L1116,1546Z" fill="#505050" stroke="#505050" stroke-width="1.51"/><path d="M1463,1585L1575,1462L1196,1363Z" fill="#4b4b4b" stroke="#4b4b4b" stroke-width="1.51"/><path d="M667,1791L1463,1585L912,1681Z" fill="#545454" stroke="#545454" stroke-width="1.51"/><path d="M1728,1111L1864,562L1625,604Z" fill="#525252" stroke="#525252" stroke-width="1.51"/><path d="M1728,1111L1834,1114L1864,562Z" fill="#4a4a4a" stroke="#4a4a4a" stroke-width="1.51"/><path d="M1575,1462L1834,1114L1728,1111Z" fill="#4a4a4a" stroke="#4a4a4a" stroke-width="1.51"/><path d="M1107,-151L950,-365L940,40Z" fill="#535353" stroke="#535353" stroke-width="1.51"/><path d="M1230,-392L950,-365L1107,-151Z" fill="#565656" stroke="#565656" stroke-width="1.51"/><path d="M-16,675L-534,538L-104,1023Z" fill="#525252" stroke="#525252" stroke-width="1.51"/><path d="M196,-28L-218,154L287,332Z" fill="#555555" stroke="#555555" stroke-width="1.51"/><path d="M-34,-130L-218,154L196,-28Z" fill="#4a4a4a" stroke="#4a4a4a" stroke-width="1.51"/><path d="M950,-365L533,-389L940,40Z" fill="#4d4d4d" stroke="#4d4d4d" stroke-width="1.51"/><path d="M-67,-405L-34,-130L196,-28Z" fill="#4b4b4b" stroke="#4b4b4b" stroke-width="1.51"/><path d="M1679,344L1724,-81L1119,134Z" fill="#515151" stroke="#515151" stroke-width="1.51"/><path d="M1980,430L1782,45L1679,344Z" fill="#545454" stroke="#545454" stroke-width="1.51"/><path d="M1864,562L1980,430L1679,344Z" fill="#4a4a4a" stroke="#4a4a4a" stroke-width="1.51"/><path d="M2074,1182L1980,430L1864,562Z" fill="#535353" stroke="#535353" stroke-width="1.51"/><path d="M950,-365L288,-565L533,-389Z" fill="#4e4e4e" stroke="#4e4e4e" stroke-width="1.51"/><path d="M1724,-81L1230,-392L1107,-151Z" fill="#4d4d4d" stroke="#4d4d4d" stroke-width="1.51"/><path d="M-104,1023L-260,1436L167,1419Z" fill="#4a4a4a" stroke="#4a4a4a" stroke-width="1.51"/><path d="M191,1533L-110,1660L667,1791Z" fill="#525252" stroke="#525252" stroke-width="1.51"/><path d="M-465,1254L-260,1436L-104,1023Z" fill="#4a4a4a" stroke="#4a4a4a" stroke-width="1.51"/><path d="M1782,45L1724,-81L1679,344Z" fill="#4f4f4f" stroke="#4f4f4f" stroke-width="1.51"/><path d="M1669,-368L1724,-81L1842,-426Z" fill="#4a4a4a" stroke="#4a4a4a" stroke-width="1.51"/><path d="M-260,1436L-110,1660L167,1419Z" fill="#4a4a4a" stroke="#4a4a4a" stroke-width="1.51"/><path d="M-218,154L-534,538L-16,675Z" fill="#4a4a4a" stroke="#4a4a4a" stroke-width="1.51"/><path d="M-580,360L-534,538L-218,154Z" fill="#4f4f4f" stroke="#4f4f4f" stroke-width="1.51"/><path d="M-260,1436L-598,1749L-110,1660Z" fill="#4a4a4a" stroke="#4a4a4a" stroke-width="1.51"/><path d="M-595,1105L-465,1254L-104,1023Z" fill="#4a4a4a" stroke="#4a4a4a" stroke-width="1.51"/><path d="M1834,1114L2074,1182L1864,562Z" fill="#4a4a4a" stroke="#4a4a4a" stroke-width="1.51"/><path d="M1904,1572L2074,1182L1834,1114Z" fill="#4a4a4a" stroke="#4a4a4a" stroke-width="1.51"/><path d="M1904,1572L1834,1114L1575,1462Z" fill="#4a4a4a" stroke="#4a4a4a" stroke-width="1.51"/><path d="M667,1791L1904,1572L1463,1585Z" fill="#4d4d4d" stroke="#4d4d4d" stroke-width="1.51"/><path d="M1463,1585L1904,1572L1575,1462Z" fill="#4a4a4a" stroke="#4a4a4a" stroke-width="1.51"/><path d="M-534,538L-595,1105L-104,1023Z" fill="#4a4a4a" stroke="#4a4a4a" stroke-width="1.51"/><path d="M-357,-180L-580,360L-218,154Z" fill="#505050" stroke="#505050" stroke-width="1.51"/><path d="M533,-389L288,-565L196,-28Z" fill="#565656" stroke="#565656" stroke-width="1.51"/><path d="M1230,-392L288,-565L950,-365Z" fill="#4d4d4d" stroke="#4d4d4d" stroke-width="1.51"/><path d="M-534,538L-580,360L-595,1105Z" fill="#565656" stroke="#565656" stroke-width="1.51"/><path d="M-357,-180L-218,154L-34,-130Z" fill="#4a4a4a" stroke="#4a4a4a" stroke-width="1.51"/><path d="M1230,-392L1842,-426L288,-565Z" fill="#555555" stroke="#555555" stroke-width="1.51"/><path d="M1724,-81L1669,-368L1230,-392Z" fill="#4a4a4a" stroke="#4a4a4a" stroke-width="1.51"/><path d="M1842,-426L1724,-81L1782,45Z" fill="#4a4a4a" stroke="#4a4a4a" stroke-width="1.51"/><path d="M288,-565L-67,-405L196,-28Z" fill="#4f4f4f" stroke="#4f4f4f" stroke-width="1.51"/><path d="M-67,-405L-357,-180L-34,-130Z" fill="#4a4a4a" stroke="#4a4a4a" stroke-width="1.51"/><path d="M1669,-368L1842,-426L1230,-392Z" fill="#4a4a4a" stroke="#4a4a4a" stroke-width="1.51"/><path d="M1980,430L1842,-426L1782,45Z" fill="#4b4b4b" stroke="#4b4b4b" stroke-width="1.51"/><path d="M-357,-180L-461,-309L-580,360Z" fill="#4a4a4a" stroke="#4a4a4a" stroke-width="1.51"/><path d="M-67,-405L-461,-309L-357,-180Z" fill="#4a4a4a" stroke="#4a4a4a" stroke-width="1.51"/><path d="M288,-565L-461,-309L-67,-405Z" fill="#4a4a4a" stroke="#4a4a4a" stroke-width="1.51"/><path d="M-595,1105L-598,1749L-465,1254Z" fill="#4a4a4a" stroke="#4a4a4a" stroke-width="1.51"/><path d="M-465,1254L-598,1749L-260,1436Z" fill="#4a4a4a" stroke="#4a4a4a" stroke-width="1.51"/><path d="M-110,1660L-598,1749L667,1791Z" fill="#4a4a4a" stroke="#4a4a4a" stroke-width="1.51"/></svg>